<?xml version="1.0" standalone="no"?>
<!DOCTYPE svg PUBLIC "-//W3C//DTD SVG 20010904//EN"
 "http://www.w3.org/TR/2001/REC-SVG-20010904/DTD/svg10.dtd">
<svg version="1.0" xmlns="http://www.w3.org/2000/svg"
 width="1024.000000pt" height="1024.000000pt" viewBox="0 0 1024.000000 1024.000000"
 preserveAspectRatio="xMidYMid meet">

<g transform="translate(0.000000,1024.000000) scale(0.100000,-0.100000)"
fill="#000000" stroke="none">
<path d="M4870 8260 c-289 -27 -625 -114 -898 -231 -400 -171 -784 -466 -1069
-821 -510 -635 -725 -1437 -608 -2269 97 -695 438 -1334 956 -1794 202 -180
362 -291 604 -416 298 -155 551 -238 900 -296 169 -28 589 -25 780 5 770 121
1418 501 1885 1106 261 340 450 751 544 1186 51 234 60 336 60 630 1 238 -2
295 -22 423 -62 400 -186 744 -393 1090 -124 206 -253 371 -434 553 -450 453
-974 718 -1605 815 -154 23 -539 34 -700 19z m683 -44 c633 -103 1143 -361
1583 -801 407 -407 674 -899 790 -1460 135 -645 47 -1316 -251 -1920 -442
-896 -1308 -1483 -2325 -1576 -160 -14 -436 -7 -590 16 -1160 173 -2116 1064
-2375 2212 -50 223 -66 364 -72 628 -4 196 -2 281 11 395 58 506 228 950 526
1371 69 98 245 303 326 380 249 236 578 451 864 564 272 107 473 158 835 209
76 11 584 -3 678 -18z"/>
<path d="M4930 8150 c-320 -25 -672 -119 -976 -261 -376 -176 -745 -484 -1016
-849 -211 -283 -388 -672 -467 -1023 -56 -251 -66 -345 -65 -657 0 -267 1
-295 28 -445 52 -297 122 -522 241 -772 265 -555 677 -986 1223 -1278 471
-253 1024 -358 1547 -294 519 63 998 265 1405 592 131 106 360 340 463 475
321 420 520 932 568 1461 16 185 7 515 -21 694 -105 690 -476 1333 -1017 1764
-478 381 -1024 578 -1648 597 -82 3 -202 1 -265 -4z m198 -350 c53 -27 93 -60
198 -164 136 -137 375 -405 437 -491 51 -72 113 -206 139 -300 29 -109 31
-316 4 -425 -51 -206 -175 -380 -381 -536 -44 -34 -154 -109 -245 -167 -91
-58 -200 -134 -243 -168 -401 -320 -379 -935 53 -1444 163 -191 411 -369 625
-448 171 -63 218 -72 405 -72 195 0 245 9 375 69 88 41 169 116 205 191 25 53
33 160 18 235 l-8 35 17 -35 c12 -23 17 -60 17 -110 0 -84 -27 -158 -85 -231
-66 -84 -214 -161 -382 -199 -133 -31 -345 -25 -482 13 -438 122 -834 476
-1011 903 -145 352 -120 701 73 973 17 25 9 19 -27 -19 -129 -137 -188 -273
-210 -489 -12 -120 -1 -269 31 -424 80 -387 256 -720 538 -1020 198 -210 542
-414 811 -482 100 -25 99 -22 44 -61 -227 -164 -625 -255 -973 -225 -182 16
-304 42 -501 107 -183 60 -461 190 -484 227 -56 89 -45 656 20 1035 43 255
102 512 111 485 2 -6 -3 -37 -11 -70 -71 -282 -111 -764 -87 -1063 13 -159 37
-333 51 -367 5 -13 41 -37 97 -63 154 -74 386 -160 397 -149 3 3 -11 38 -31
79 -88 184 -170 431 -217 656 -60 291 -80 521 -73 879 4 229 8 283 26 356 38
158 89 279 158 379 11 15 -3 6 -33 -20 -107 -95 -228 -140 -375 -140 -192 0
-331 85 -407 248 -23 49 -27 70 -27 149 0 51 5 96 10 102 7 7 10 -17 11 -72 0
-101 23 -156 94 -231 108 -114 313 -165 485 -120 90 23 201 80 246 126 44 46
54 76 12 36 -65 -61 -251 -128 -354 -128 -217 0 -403 152 -417 340 -8 114 26
190 111 247 63 42 144 59 205 42 127 -35 190 -182 129 -300 -75 -144 -297 -98
-297 61 0 37 23 85 45 94 13 5 12 0 -4 -20 -29 -36 -28 -102 1 -139 48 -62
126 -64 183 -5 23 24 29 41 33 87 3 48 0 64 -20 93 -101 152 -348 58 -348
-132 0 -84 27 -145 95 -214 78 -79 143 -105 275 -112 191 -8 360 70 421 194
18 39 21 57 17 132 -6 105 -28 165 -128 337 -126 220 -160 323 -160 489 0 119
19 209 60 285 17 30 28 56 26 58 -7 7 -99 -122 -122 -172 -41 -88 -57 -185
-51 -309 5 -108 11 -135 80 -371 13 -48 20 -101 21 -170 0 -90 -3 -106 -28
-163 -39 -85 -108 -147 -179 -161 -54 -11 -108 -4 -143 18 -18 12 -18 12 1 5
11 -4 43 -9 71 -12 125 -9 232 111 242 273 3 63 -1 84 -41 205 -63 185 -81
288 -74 420 11 215 81 354 252 500 100 85 162 124 260 161 131 51 208 88 239
117 30 27 30 27 14 2 -23 -37 -84 -75 -201 -124 -127 -53 -177 -86 -246 -162
-155 -169 -183 -411 -77 -656 19 -43 68 -137 109 -210 100 -176 120 -235 120
-363 1 -71 -4 -113 -17 -145 -22 -59 -17 -53 111 140 124 187 157 255 173 357
20 128 2 188 -149 492 -56 111 -110 233 -122 271 -37 122 -9 165 161 250 47
23 100 53 118 67 67 50 98 159 68 238 -21 53 -47 76 -141 119 -137 64 -180
124 -173 240 8 121 68 214 171 266 56 29 69 31 130 27 49 -3 85 -13 135 -37z
m-877 -809 c79 -80 -14 -212 -109 -155 -87 51 -56 184 43 184 27 0 44 -8 66
-29z m-73 -1175 c40 -21 79 -69 91 -113 15 -52 7 -52 -18 0 -54 112 -220 149
-368 83 -60 -27 -46 -9 20 25 73 38 206 40 275 5z m1776 -127 c70 -83 -13
-199 -111 -153 -47 23 -69 72 -53 120 15 44 45 64 96 64 35 0 47 -5 68 -31z
m-743 -146 c8 -9 70 -61 139 -116 344 -276 401 -326 486 -428 91 -110 155
-219 194 -335 33 -95 34 -105 35 -249 0 -82 -4 -163 -8 -180 l-8 -30 29 35
c75 90 250 127 376 79 75 -28 147 -93 183 -166 35 -74 44 -192 18 -260 -19
-48 -74 -117 -109 -135 -13 -6 -7 4 16 28 73 77 97 187 63 289 l-13 40 -1 -75
c-1 -67 -5 -82 -33 -130 -80 -132 -270 -151 -366 -35 -119 145 -19 368 163
364 26 0 27 -2 10 -9 -11 -5 -32 -11 -48 -15 -36 -7 -100 -66 -121 -109 -18
-39 -21 -112 -5 -153 13 -34 55 -80 91 -99 54 -28 161 -11 212 34 28 25 66
112 66 152 0 139 -127 244 -274 226 -72 -8 -167 -58 -215 -112 -107 -122 -105
-332 6 -494 l17 -25 -23 20 c-36 31 -74 115 -165 367 -95 265 -142 374 -216
509 -148 265 -333 446 -692 672 -50 31 -85 57 -78 57 22 0 309 -151 403 -213
259 -171 421 -426 593 -936 46 -134 49 -141 52 -100 1 24 9 95 18 157 25 173
16 320 -28 450 -69 201 -164 331 -416 569 -267 253 -388 373 -376 373 6 0 18
-7 25 -17z m1237 -668 c33 -39 30 -98 -7 -136 -40 -40 -88 -40 -130 0 -54 51
-39 138 29 164 30 12 85 -2 108 -28z"/>
<path d="M4917 7776 c-54 -15 -111 -57 -144 -105 -52 -76 -38 -197 31 -265 76
-76 212 -103 558 -109 l238 -4 -62 71 c-34 39 -125 134 -202 212 -112 111
-155 147 -206 172 -76 38 -146 47 -213 28z m141 -129 c20 -15 78 -68 127 -118
50 -51 77 -83 61 -71 -15 12 -33 19 -39 15 -6 -3 -7 -1 -3 5 3 6 0 14 -7 19
-8 4 -19 17 -25 28 -10 19 -11 19 -20 -4 -6 -18 -11 -21 -17 -11 -5 8 -2 17 7
24 13 10 12 14 -8 29 -13 10 -24 14 -24 9 0 -6 7 -13 16 -16 8 -3 12 -10 9
-16 -4 -6 -10 -8 -15 -5 -4 3 -7 -11 -5 -30 6 -60 14 -75 43 -76 15 0 36 -4
47 -9 13 -6 2 -8 -35 -4 -188 18 -256 45 -284 115 -21 52 -13 93 23 127 21 20
33 23 69 19 23 -2 59 -16 80 -30z"/>
<path d="M4935 7652 c-11 -9 -18 -16 -16 -15 11 7 29 -20 24 -35 -4 -14 -3
-15 5 -2 8 10 8 18 0 27 -7 9 -7 17 2 28 16 20 10 19 -15 -3z"/>
<path d="M5000 7656 c0 -2 11 -11 25 -20 14 -9 25 -13 25 -8 0 5 -11 14 -25
20 -14 6 -25 10 -25 8z"/>
<path d="M4980 7640 c12 -8 13 -12 2 -19 -11 -6 -10 -10 3 -15 24 -9 32 -7 15
4 -13 8 -13 10 1 10 9 0 22 -7 29 -15 9 -11 16 -13 24 -5 5 5 14 10 18 10 13
0 9 -28 -4 -33 -7 -2 -11 -7 -8 -10 3 -3 14 1 25 9 18 13 18 15 2 31 -13 13
-20 14 -28 6 -9 -9 -20 -6 -44 13 -17 13 -36 24 -41 24 -5 0 -2 -5 6 -10z"/>
<path d="M4895 7609 c-4 -6 -4 -13 -1 -16 3 -4 6 -1 6 6 0 7 5 9 12 5 7 -4 8
-3 4 4 -9 15 -13 15 -21 1z"/>
<path d="M4896 7557 c3 -10 9 -15 12 -12 3 3 0 11 -7 18 -10 9 -11 8 -5 -6z"/>
<path d="M4931 7544 c0 -11 3 -14 6 -6 3 7 2 16 -1 19 -3 4 -6 -2 -5 -13z"/>
<path d="M5075 7540 c-3 -5 1 -10 9 -10 9 0 16 5 16 10 0 6 -4 10 -9 10 -6 0
-13 -4 -16 -10z"/>
<path d="M5018 7493 c7 -3 16 -2 19 1 4 3 -2 6 -13 5 -11 0 -14 -3 -6 -6z"/>
<path d="M4990 7460 c8 -5 22 -10 30 -10 13 0 13 1 0 10 -8 5 -22 10 -30 10
-13 0 -13 -1 0 -10z"/>
<path d="M5251 7228 c-63 -31 -101 -94 -101 -168 0 -94 46 -144 181 -195 129
-50 147 -79 179 -287 11 -73 36 -200 55 -283 19 -82 38 -174 42 -204 l8 -55
72 79 c133 144 197 306 196 500 0 124 -17 207 -64 321 -34 81 -106 196 -160
257 -33 35 -38 37 -124 47 -150 16 -234 13 -284 -12z"/>
<path d="M4850 6672 c0 -35 48 -181 100 -302 78 -184 100 -264 100 -360 0
-158 -50 -260 -244 -505 -48 -60 -96 -120 -107 -133 -50 -58 -8 -26 94 75 123
121 252 219 437 332 157 96 249 157 281 188 l26 24 -34 122 c-19 67 -56 187
-83 267 l-49 145 0 -165 c-1 -185 -12 -291 -42 -427 -21 -93 -44 -132 -28 -49
27 147 32 431 7 478 -14 28 -63 48 -154 63 -47 8 -99 23 -119 35 -45 28 -110
101 -147 168 -29 51 -38 61 -38 44z"/>
<path d="M4570 5173 c-48 -54 -116 -204 -144 -314 -107 -424 -23 -1136 199
-1690 60 -148 164 -348 191 -366 50 -32 303 -62 469 -54 l40 1 -72 68 c-376
354 -668 950 -754 1540 -17 116 -20 177 -17 315 5 192 17 250 87 429 22 56 39
103 37 105 -2 2 -18 -13 -36 -34z"/>
<path d="M4556 4976 c-27 -110 -32 -348 -10 -536 54 -469 231 -907 513 -1270
128 -165 339 -366 420 -400 28 -11 44 -11 100 0 95 18 257 73 337 113 l69 35
-90 27 c-279 85 -521 231 -731 440 -276 275 -489 669 -571 1054 -25 114 -27
146 -28 344 0 119 -1 217 -1 217 -1 0 -5 -11 -8 -24z"/>
<path d="M4137 6972 c-26 -29 -22 -77 9 -101 15 -12 32 -21 39 -21 7 0 24 9
39 21 34 27 36 81 4 103 -30 21 -71 20 -91 -2z m92 -24 c18 -48 -20 -90 -62
-71 -28 13 -38 39 -26 71 12 32 76 32 88 0z"/>
<path d="M5837 5672 c-10 -10 -17 -32 -17 -49 0 -55 59 -81 108 -47 28 19 30
74 4 97 -25 22 -75 21 -95 -1z m77 -8 c19 -18 21 -55 4 -72 -19 -19 -66 -15
-78 7 -14 28 -13 38 10 61 24 24 43 25 64 4z"/>
<path d="M6332 4864 c-29 -20 -30 -76 -1 -105 24 -24 75 -20 97 8 19 26 14 70
-10 93 -26 24 -56 26 -86 4z m76 -16 c7 -7 12 -24 12 -38 0 -32 -17 -50 -46
-50 -23 0 -54 33 -54 57 0 34 62 57 88 31z"/>
</g>
</svg>
